<svg width="289" height="96" viewBox="0 0 289 96" fill="none" xmlns="http://www.w3.org/2000/svg">
<path d="M143.393 45.2986H116.619V18.478H103.209V85.4829H116.619V58.7089H143.393V85.4829H156.804V18.478H143.393V45.2986Z" fill="#373737"/>
<path d="M178.335 66.6524C178.086 66.2164 177.883 65.7178 177.728 65.157C177.572 64.5965 177.44 64.0122 177.331 63.4047C177.221 62.7973 177.144 62.1982 177.097 61.606C177.05 61.0147 177.027 60.4845 177.027 60.0171C177.027 57.9307 177.354 56.0534 178.008 54.3867C178.663 52.7205 179.558 51.2954 180.695 50.1113C181.832 48.9279 183.172 48.0168 184.714 47.3779C186.255 46.7398 187.898 46.42 189.643 46.42C190.266 46.42 190.865 46.4513 191.442 46.5134C192.018 46.5762 192.602 46.7164 193.194 46.934L178.335 66.6524ZM206.464 39.855C204.906 38.5001 203.232 37.3552 201.441 36.4206C199.65 35.4861 197.757 34.7698 195.764 34.2713C193.77 33.7734 191.73 33.5238 189.643 33.5238C186.122 33.5238 182.813 34.1624 179.714 35.4394C176.614 36.717 173.904 38.5079 171.584 40.8129C169.263 43.1185 167.432 45.906 166.093 49.1768C164.753 52.4476 164.084 56.0616 164.084 60.0171C164.084 63.8802 164.753 67.4233 166.093 70.6475C167.432 73.8714 169.263 76.6517 171.584 78.9879C173.904 81.3244 176.614 83.1467 179.714 84.455C182.813 85.7631 186.122 86.4175 189.643 86.4175C191.73 86.4175 193.762 86.1758 195.741 85.6932C197.719 85.2105 199.603 84.5017 201.395 83.5673C203.185 82.6327 204.852 81.4957 206.394 80.1561C207.936 78.8172 209.299 77.3059 210.483 75.6237L201.138 66.2318C200.639 67.3533 199.993 68.374 199.199 69.2924C198.404 70.2114 197.501 70.9904 196.489 71.6286C195.476 72.2674 194.393 72.7583 193.241 73.1006C192.088 73.4436 190.889 73.6145 189.643 73.6145C189.144 73.6145 188.646 73.5911 188.148 73.5443C187.649 73.4977 187.151 73.3971 186.653 73.2405L210.576 44.4107C209.392 42.7286 208.022 41.2101 206.464 39.855Z" fill="#373737"/>
<path d="M288.871 48.2424V35.5328H269.526V15.5342H256.817V35.3857L252.678 35.4394H232.809V33.0564C232.809 31.6859 233.058 30.4163 233.557 29.2482C234.055 28.0801 234.732 27.0681 235.589 26.211C236.445 25.3547 237.458 24.6852 238.626 24.2019C239.795 23.7192 241.063 23.4776 242.435 23.4776H252.013V10.7682H242.435C239.351 10.7682 236.454 11.3521 233.744 12.5202C231.033 13.6886 228.658 15.2772 226.618 17.2863C224.577 19.2956 222.973 21.6552 221.805 24.3653C220.637 27.0753 220.053 29.9725 220.053 33.0564V35.4394H213.838V48.1488H220.053V85.4829H232.809V48.1488H250.603L256.817 48.0953V63.101C256.817 66.185 257.401 69.0821 258.569 71.7924C259.737 74.5022 261.341 76.878 263.382 78.9179C265.422 80.9587 267.798 82.5624 270.508 83.7306C273.218 84.8989 276.115 85.4829 279.199 85.4829H288.871V72.7735H279.199C277.859 72.7735 276.598 72.5163 275.414 72.0023C274.23 71.4886 273.202 70.7957 272.33 69.9233C271.458 69.0513 270.772 68.0307 270.274 66.8627C269.776 65.6945 269.526 64.4409 269.526 63.101V48.2424H288.871Z" fill="#373737"/>
<path d="M0 20.8572V74.1208C0 84.5437 8.45587 92.99 18.8788 92.9783L25.6224 92.9706V80.3409H20.9898C15.7629 80.3409 11.5259 76.1039 11.5259 70.877V22.9895C11.5259 17.7626 15.7629 13.5256 20.9898 13.5256H68.52C73.7468 13.5256 77.9839 17.7626 77.9839 22.9895V38.6246L90.6135 27.6654L90.6283 20.8981C90.6509 10.4675 82.2015 1.99972 71.7708 1.99972H18.8575C8.44278 1.99972 0 10.4425 0 20.8572Z" fill="#DB2D43"/>
<path d="M37.1202 65.1022L62.9158 39.212H37.1202V65.1022ZM90.6693 27.6861L25.5944 93V27.6861H90.6693Z" fill="#DB2D43"/>
<path d="M77.9839 16.1165V27.666H90.6136V18.732C90.6136 17.2875 89.4425 16.1165 87.9978 16.1165H77.9839Z" fill="url(#paint0_linear_5_379)"/>
<path d="M14.0176 80.3411V90.3551C14.0176 91.7997 15.1887 92.9707 16.6333 92.9707H25.5673V80.3411H14.0176Z" fill="url(#paint1_linear_5_379)"/>
<defs>
<linearGradient id="paint0_linear_5_379" x1="84.1834" y1="19.6605" x2="84.5717" y2="31.5031" gradientUnits="userSpaceOnUse">
<stop stop-color="#DB2D43"/>
<stop offset="1" stop-color="#871222"/>
</linearGradient>
<linearGradient id="paint1_linear_5_379" x1="17.6183" y1="86.7272" x2="29.3775" y2="86.3416" gradientUnits="userSpaceOnUse">
<stop stop-color="#DB2D43"/>
<stop offset="1" stop-color="#871222"/>
</linearGradient>
</defs>
</svg>
