<svg width="289" height="96" viewBox="0 0 289 96" fill="none" xmlns="http://www.w3.org/2000/svg">
<path d="M143.393 45.2981H116.619V18.4775H103.209V85.4824H116.619V58.7084H143.393V85.4824H156.804V18.4775H143.393V45.2981Z" fill="#373737"/>
<path d="M178.335 66.6529C178.086 66.2169 177.884 65.7183 177.728 65.1575C177.572 64.597 177.44 64.0127 177.331 63.4052C177.221 62.7978 177.144 62.1987 177.097 61.6064C177.051 61.0152 177.027 60.485 177.027 60.0176C177.027 57.9312 177.354 56.0539 178.008 54.3872C178.663 52.721 179.558 51.2959 180.695 50.1118C181.832 48.9284 183.172 48.0173 184.714 47.3784C186.256 46.7403 187.898 46.4205 189.643 46.4205C190.266 46.4205 190.865 46.4518 191.442 46.5139C192.018 46.5767 192.602 46.7169 193.194 46.9345L178.335 66.6529ZM206.464 39.8555C204.906 38.5006 203.232 37.3557 201.441 36.4211C199.65 35.4866 197.757 34.7703 195.764 34.2717C193.77 33.7739 191.73 33.5243 189.643 33.5243C186.123 33.5243 182.813 34.1629 179.714 35.4398C176.614 36.7175 173.904 38.5084 171.584 40.8134C169.263 43.1189 167.432 45.9065 166.093 49.1773C164.754 52.4481 164.084 56.0621 164.084 60.0176C164.084 63.8807 164.754 67.4238 166.093 70.648C167.432 73.8719 169.263 76.6522 171.584 78.9884C173.904 81.3248 176.614 83.1472 179.714 84.4555C182.813 85.7636 186.123 86.418 189.643 86.418C191.73 86.418 193.762 86.1763 195.741 85.6937C197.719 85.211 199.603 84.5022 201.395 83.5678C203.186 82.6331 204.853 81.4962 206.394 80.1566C207.936 78.8177 209.299 77.3064 210.483 75.6241L201.138 66.2323C200.639 67.3538 199.993 68.3745 199.199 69.2929C198.404 70.2119 197.501 70.9909 196.489 71.6291C195.476 72.2679 194.393 72.7588 193.241 73.1011C192.088 73.444 190.889 73.615 189.643 73.615C189.144 73.615 188.646 73.5916 188.148 73.5448C187.649 73.4982 187.151 73.3976 186.653 73.241L210.576 44.4112C209.392 42.7291 208.022 41.2106 206.464 39.8555Z" fill="#373737"/>
<path d="M288.871 48.2438V35.5343H269.527V15.5356H256.817V35.3872L252.678 35.4409H232.809V33.0579C232.809 31.6874 233.058 30.4178 233.557 29.2497C234.055 28.0816 234.732 27.0696 235.589 26.2125C236.446 25.3561 237.458 24.6866 238.626 24.2034C239.795 23.7207 241.064 23.4791 242.435 23.4791H252.014V10.7697H242.435C239.351 10.7697 236.454 11.3536 233.744 12.5217C231.034 13.6901 228.658 15.2786 226.618 17.2878C224.577 19.2971 222.973 21.6566 221.805 24.3668C220.637 27.0768 220.053 29.9739 220.053 33.0579V35.4409H213.838V48.1503H220.053V85.4844H232.809V48.1503H250.603L256.817 48.0967V63.1025C256.817 66.1864 257.401 69.0836 258.569 71.7939C259.738 74.5037 261.342 76.8795 263.382 78.9194C265.422 80.9601 267.798 82.5638 270.508 83.7321C273.218 84.9003 276.115 85.4844 279.199 85.4844H288.871V72.775H279.199C277.859 72.775 276.598 72.5178 275.414 72.0038C274.23 71.4901 273.202 70.7972 272.33 69.9248C271.458 69.0528 270.772 68.0321 270.274 66.8642C269.776 65.6959 269.527 64.4424 269.527 63.1025V48.2438H288.871Z" fill="#373737"/>
<path d="M0 20.8575V74.121C0 84.544 8.45587 92.9903 18.8788 92.9785L25.6224 92.9709V80.3412H20.9898C15.7629 80.3412 11.5259 76.1041 11.5259 70.8773V22.9897C11.5259 17.7629 15.7629 13.5258 20.9898 13.5258H68.52C73.7468 13.5258 77.9839 17.7629 77.9839 22.9897V38.6248L90.6135 27.6656L90.6283 20.8984C90.6509 10.4678 82.2015 1.99996 71.7708 1.99996H18.8575C8.44278 1.99996 0 10.4427 0 20.8575Z" fill="#DB2D43"/>
<path d="M37.1201 65.1022L62.9157 39.212H37.1201V65.1022ZM90.6692 27.6861L25.5942 93V27.6861H90.6692Z" fill="#DB2D43"/>
<path d="M77.9839 16.1165V27.666H90.6136V18.732C90.6136 17.2875 89.4425 16.1165 87.9978 16.1165H77.9839Z" fill="url(#paint0_linear_1966_16476)"/>
<path d="M14.0176 80.3411V90.3551C14.0176 91.7997 15.1886 92.9707 16.6333 92.9707H25.5673V80.3411H14.0176Z" fill="url(#paint1_linear_1966_16476)"/>
<defs>
<linearGradient id="paint0_linear_1966_16476" x1="84.1834" y1="19.6605" x2="84.5717" y2="31.5031" gradientUnits="userSpaceOnUse">
<stop stop-color="#DB2D43"/>
<stop offset="1" stop-color="#871222"/>
</linearGradient>
<linearGradient id="paint1_linear_1966_16476" x1="17.6182" y1="86.7272" x2="29.3774" y2="86.3416" gradientUnits="userSpaceOnUse">
<stop stop-color="#DB2D43"/>
<stop offset="1" stop-color="#871222"/>
</linearGradient>
</defs>
</svg>
