<svg width="92" height="92" viewBox="0 0 92 92" fill="none" xmlns="http://www.w3.org/2000/svg">
<path d="M1 19.8572V73.1208C1 83.5437 9.45587 91.99 19.8788 91.9783L26.6224 91.9706V79.3409H21.9898C16.7629 79.3409 12.5259 75.1039 12.5259 69.877V21.9895C12.5259 16.7626 16.7629 12.5256 21.9898 12.5256H69.52C74.7468 12.5256 78.9839 16.7626 78.9839 21.9895V37.6246L91.6135 26.6654L91.6283 19.8981C91.6509 9.46751 83.2015 0.999718 72.7708 0.999718H19.8575C9.44278 0.999718 1 9.4425 1 19.8572Z" fill="#DB2D43"/>
<path d="M38.1202 64.1022L63.9158 38.212H38.1202V64.1022ZM91.6693 26.6861L26.5944 92V26.6861H91.6693Z" fill="#DB2D43"/>
<path d="M78.9839 15.1165V26.666H91.6136V17.732C91.6136 16.2875 90.4425 15.1165 88.9978 15.1165H78.9839Z" fill="url(#paint0_linear_1192_20619)"/>
<path d="M15.0176 79.3411V89.3551C15.0176 90.7997 16.1887 91.9707 17.6333 91.9707H26.5673V79.3411H15.0176Z" fill="url(#paint1_linear_1192_20619)"/>
<defs>
<linearGradient id="paint0_linear_1192_20619" x1="85.1834" y1="18.6605" x2="85.5717" y2="30.5031" gradientUnits="userSpaceOnUse">
<stop stop-color="#DB2D43"/>
<stop offset="1" stop-color="#871222"/>
</linearGradient>
<linearGradient id="paint1_linear_1192_20619" x1="18.6183" y1="85.7272" x2="30.3775" y2="85.3416" gradientUnits="userSpaceOnUse">
<stop stop-color="#DB2D43"/>
<stop offset="1" stop-color="#871222"/>
</linearGradient>
</defs>
</svg>
